<svg xmlns="http://www.w3.org/2000/svg" xmlns:xlink="http://www.w3.org/1999/xlink" width="500" zoomAndPan="magnify" viewBox="0 0 375 374.999991" height="500" preserveAspectRatio="xMidYMid meet" version="1.2"><defs><clipPath id="7ae5e241d0"><path d="M 12 25.625 L 363 25.625 L 363 333.875 L 12 333.875 Z M 12 25.625 "/></clipPath><clipPath id="3357e8f0ae"><path d="M 74 86 L 242 86 L 242 333 L 74 333 Z M 74 86 "/></clipPath><clipPath id="aafe698906"><path d="M 70.800781 89.277344 L 239.507812 85.453125 L 245.046875 329.890625 L 76.339844 333.714844 Z M 70.800781 89.277344 "/></clipPath><clipPath id="327f0cb3a4"><path d="M 70.800781 89.277344 L 239.507812 85.453125 L 245.046875 329.890625 L 76.339844 333.714844 Z M 70.800781 89.277344 "/></clipPath><clipPath id="d776a978d6"><path d="M 134 41 L 298 41 L 298 284 L 134 284 Z M 134 41 "/></clipPath><clipPath id="819595f5d7"><path d="M 130.429688 44.289062 L 296.136719 40.53125 L 301.574219 280.46875 L 135.867188 284.226562 Z M 130.429688 44.289062 "/></clipPath><clipPath id="b0cc741b05"><path d="M 130.429688 44.289062 L 296.136719 40.53125 L 301.574219 280.46875 L 135.867188 284.226562 Z M 130.429688 44.289062 "/></clipPath><clipPath id="cff348c839"><path d="M 16 1 L 282 1 L 282 374 L 16 374 Z M 16 1 "/></clipPath><clipPath id="dfb7042d56"><path d="M 31.070312 -13.089844 L 294.386719 6.6875 L 265.714844 388.449219 L 2.398438 368.671875 Z M 31.070312 -13.089844 "/></clipPath><clipPath id="93b3b55d10"><path d="M 31.070312 -13.089844 L 294.386719 6.6875 L 265.714844 388.449219 L 2.398438 368.671875 Z M 31.070312 -13.089844 "/></clipPath><clipPath id="90a640abb9"><path d="M 45.277344 333.925781 L 171.726562 333.925781 L 171.726562 375 L 45.277344 375 Z M 45.277344 333.925781 "/></clipPath><clipPath id="71f6267db9"><path d="M 0.277344 0.925781 L 126.726562 0.925781 L 126.726562 42 L 0.277344 42 Z M 0.277344 0.925781 "/></clipPath><clipPath id="ebbb19eca5"><rect x="0" width="127" y="0" height="42"/></clipPath><clipPath id="48a1564d3f"><rect x="0" width="297" y="0" height="375"/></clipPath></defs><g id="4b64f27d82"><rect x="0" width="375" y="0" height="374.999991" style="fill:#ffffff;fill-opacity:1;stroke:none;"/><rect x="0" width="375" y="0" height="374.999991" style="fill:#ffffff;fill-opacity:1;stroke:none;"/><g clip-rule="nonzero" clip-path="url(#7ae5e241d0)"><path style=" stroke:none;fill-rule:nonzero;fill:#1b0551;fill-opacity:1;" d="M 267.59375 25.625 L 107.378906 25.625 C 102.488281 25.625 96.480469 29.089844 94.023438 33.328125 L 13.933594 172.070312 C 11.476562 176.308594 11.476562 183.246094 13.933594 187.484375 L 94.03125 326.222656 C 96.488281 330.460938 102.492188 333.929688 107.382812 333.929688 L 267.59375 333.929688 C 272.484375 333.929688 278.492188 330.460938 280.945312 326.222656 L 361.066406 187.484375 C 363.523438 183.246094 363.523438 176.308594 361.066406 172.070312 L 280.945312 33.328125 C 278.511719 29.089844 272.484375 25.625 267.59375 25.625 Z M 267.59375 25.625 "/></g><g clip-rule="nonzero" clip-path="url(#3357e8f0ae)"><g clip-rule="nonzero" clip-path="url(#aafe698906)"><g clip-rule="nonzero" clip-path="url(#327f0cb3a4)"><path style=" stroke:none;fill-rule:nonzero;fill:#f58802;fill-opacity:1;" d="M 196.957031 86.4375 C 195.707031 86.652344 194.636719 87.71875 194.414062 87.996094 C 194.308594 88.132812 194.058594 88.273438 193.992188 88.433594 L 75.554688 224.011719 C 75.011719 224.582031 74.722656 225.332031 74.742188 226.175781 C 74.78125 227.867188 76.121094 229.152344 77.816406 229.113281 L 139.613281 227.714844 L 116.140625 328.71875 L 116.15625 329.363281 C 116.117188 329.554688 115.953125 329.804688 115.957031 330.011719 C 115.996094 331.703125 117.335938 332.988281 119.027344 332.949219 C 119.976562 332.929688 120.816406 332.511719 121.367188 331.824219 L 240.71875 189.351562 C 241.265625 188.785156 241.546875 188.035156 241.527344 187.1875 C 241.492188 185.496094 240.148438 184.210938 238.460938 184.25 L 172.152344 185.753906 L 199.632812 90.886719 C 199.824219 90.472656 199.828125 90.078125 199.816406 89.59375 C 199.777344 87.902344 199.667969 87.160156 198.246094 86.625 C 197.820312 86.460938 197.371094 86.363281 196.957031 86.4375 Z M 196.957031 86.4375 "/></g></g></g><g clip-rule="nonzero" clip-path="url(#d776a978d6)"><g clip-rule="nonzero" clip-path="url(#819595f5d7)"><g clip-rule="nonzero" clip-path="url(#b0cc741b05)"><path style=" stroke:none;fill-rule:nonzero;fill:#f58802;fill-opacity:1;" d="M 254.109375 41.503906 C 252.886719 41.714844 251.839844 42.761719 251.617188 43.035156 C 251.515625 43.167969 251.273438 43.304688 251.207031 43.460938 L 135.085938 176.382812 C 134.554688 176.941406 134.273438 177.675781 134.292969 178.503906 C 134.328125 180.164062 135.644531 181.421875 137.304688 181.386719 L 197.890625 180.011719 L 174.878906 279.042969 L 174.894531 279.671875 C 174.855469 279.859375 174.695312 280.105469 174.699219 280.308594 C 174.734375 281.96875 176.050781 283.226562 177.710938 283.1875 C 178.640625 283.167969 179.464844 282.757812 180 282.085938 L 297.015625 142.402344 C 297.550781 141.847656 297.828125 141.109375 297.8125 140.28125 C 297.773438 138.621094 296.457031 137.363281 294.800781 137.402344 L 229.792969 138.875 L 256.734375 45.863281 C 256.921875 45.460938 256.925781 45.074219 256.914062 44.597656 C 256.875 42.9375 256.773438 42.214844 255.378906 41.6875 C 254.957031 41.523438 254.515625 41.429688 254.109375 41.503906 Z M 254.109375 41.503906 "/></g></g></g><g transform="matrix(1,0,0,1,39,0)"><g clip-path="url(#48a1564d3f)"><g clip-rule="nonzero" clip-path="url(#cff348c839)"><g clip-rule="nonzero" clip-path="url(#dfb7042d56)"><g clip-rule="nonzero" clip-path="url(#93b3b55d10)"><path style=" stroke:none;fill-rule:nonzero;fill:#ffffff;fill-opacity:1;" d="M 227.742188 1.714844 C 225.765625 1.855469 223.941406 3.351562 223.550781 3.753906 C 223.363281 3.949219 222.957031 4.128906 222.828125 4.371094 L 17.941406 197.214844 C 17.007812 198.019531 16.449219 199.144531 16.351562 200.460938 C 16.152344 203.097656 18.042969 205.300781 20.679688 205.5 L 117.023438 212.734375 L 65.121094 366.273438 L 65.046875 367.277344 C 64.960938 367.570312 64.664062 367.933594 64.640625 368.257812 C 64.441406 370.894531 66.332031 373.097656 68.972656 373.296875 C 70.449219 373.40625 71.820312 372.882812 72.777344 371.902344 L 280.136719 168.464844 C 281.070312 167.664062 281.628906 166.539062 281.726562 165.21875 C 281.925781 162.585938 280.035156 160.382812 277.398438 160.1875 L 174.03125 152.421875 L 231.226562 9.039062 C 231.585938 8.425781 231.652344 7.8125 231.707031 7.058594 C 231.90625 4.417969 231.851562 3.253906 229.722656 2.199219 C 229.082031 1.878906 228.398438 1.660156 227.742188 1.714844 Z M 227.742188 1.714844 "/></g></g></g><g clip-rule="nonzero" clip-path="url(#90a640abb9)"><g transform="matrix(1,0,0,1,45,333)"><g id="9926288440" clip-path="url(#ebbb19eca5)"><g clip-rule="nonzero" clip-path="url(#71f6267db9)"><path style=" stroke:none;fill-rule:nonzero;fill:#ffffff;fill-opacity:1;" d="M 0.277344 0.925781 L 126.648438 0.925781 L 126.648438 42.5625 L 0.277344 42.5625 Z M 0.277344 0.925781 "/></g></g></g></g></g></g></g></svg>